<?xml version="1.0" encoding="UTF-8" standalone="no"?>
<!-- Created with Inkscape (http://www.inkscape.org/) -->

<svg
   xmlns:dc="http://purl.org/dc/elements/1.1/"
   xmlns:cc="http://creativecommons.org/ns#"
   xmlns:rdf="http://www.w3.org/1999/02/22-rdf-syntax-ns#"
   xmlns:svg="http://www.w3.org/2000/svg"
   xmlns="http://www.w3.org/2000/svg"
   xmlns:sodipodi="http://sodipodi.sourceforge.net/DTD/sodipodi-0.dtd"
   xmlns:inkscape="http://www.inkscape.org/namespaces/inkscape"
   width="744.09448819"
   height="1052.3622047"
   id="svg2"
   version="1.1"
   inkscape:version="0.48.4 r9939"
   sodipodi:docname="restaurant.svg"
   inkscape:export-filename="C:\Users\vs-user\Desktop\restaurant.png"
   inkscape:export-xdpi="90.113708"
   inkscape:export-ydpi="90.113708">
  <defs
     id="defs4" />
  <sodipodi:namedview
     id="base"
     pagecolor="#ffffff"
     bordercolor="#666666"
     borderopacity="1.0"
     inkscape:pageopacity="0.0"
     inkscape:pageshadow="2"
     inkscape:zoom="1.53"
     inkscape:cx="352.43944"
     inkscape:cy="600.12819"
     inkscape:document-units="px"
     inkscape:current-layer="layer3"
     showgrid="false"
     inkscape:snap-grids="false"
     inkscape:window-width="1280"
     inkscape:window-height="738"
     inkscape:window-x="-8"
     inkscape:window-y="-8"
     inkscape:window-maximized="1" />
  <metadata
     id="metadata7">
    <rdf:RDF>
      <cc:Work
         rdf:about="">
        <dc:format>image/svg+xml</dc:format>
        <dc:type
           rdf:resource="http://purl.org/dc/dcmitype/StillImage" />
        <dc:title></dc:title>
      </cc:Work>
    </rdf:RDF>
  </metadata>
  <g
     inkscape:label="Layer 1"
     inkscape:groupmode="layer"
     id="layer1">
    <path
       style="font-size:109.92803192px;font-style:normal;font-variant:normal;font-weight:normal;font-stretch:normal;line-height:125%;letter-spacing:0px;word-spacing:0px;fill:#e94f1d;fill-opacity:1;stroke:none;font-family:BOUTON International Symbols;-inkscape-font-specification:BOUTON International Symbols"
       d="m 353.25565,383.40827 -1.83919,0.45283 -2.60316,25.10514 -1.47134,0 0,-25.10514 -1.83919,0 c -0.49691,1.18428 -1.05226,2.69579 -1.66941,4.54646 -0.61735,1.85091 -1.25033,3.77834 -1.86749,5.77817 -0.61734,2.00006 -1.22579,3.9957 -1.83919,5.99552 -0.61358,2.00006 -1.05325,3.89338 -1.30157,5.66949 -0.4969,3.70169 -0.008,6.48146 1.47135,8.33215 1.47905,1.85089 2.95934,3.13514 4.44234,3.87626 1.48281,0.74132 2.67491,1.71409 3.5369,2.89814 0.86179,1.18424 1.54034,2.1389 2.03725,2.88003 l 0,70.64215 c -10e-5,1.33331 0.61212,2.23335 1.83918,2.68078 l 7.0172,0 c 0.4967,2e-5 0.88706,-0.2591 1.13181,-0.77888 0.24454,-0.51974 0.6066,-1.07434 1.10351,-1.66643 -1.1e-4,-11.40302 -1.1e-4,-21.04017 0,-28.89083 -1.1e-4,-7.99518 -1.1e-4,-14.50938 0,-19.54433 -1.1e-4,-5.18395 -1.1e-4,-9.24797 0,-12.2084 -1.1e-4,-2.96481 -1.1e-4,-5.20132 0,-6.68384 -1.1e-4,-1.47784 -1.1e-4,-2.50523 0,-3.09739 -1.1e-4,-0.59198 -1.1e-4,-1.11021 0,-1.55775 -1.1e-4,-1.3332 0.80164,-2.41055 2.40509,-3.22418 1.60322,-0.81344 3.13662,-1.80446 4.61211,-2.98871 1.73119,-1.33319 2.72623,-3.06972 2.971,-5.21664 0.24452,-2.14673 0.24827,-3.74232 0,-4.78194 -1.2e-4,-0.59196 -0.27105,-1.77389 -0.76398,-3.55022 -0.49317,-1.77611 -1.02398,-3.82623 -1.64111,-6.12232 -0.61737,-2.29586 -1.25411,-4.62109 -1.86748,-6.99176 -0.61362,-2.37042 -1.14442,-4.45465 -1.64112,-6.231 l -1.86748,0 0,25.55797 -2.20703,-0.21736 -2.23532,-25.34061 -1.10351,0 -1.10351,25.55797 -2.60315,-0.21736 -1.10351,-25.55797 z m 32.93556,0.45283 c -1.48303,1.4e-4 -2.60127,0.32972 -3.33882,0.99624 -0.73782,0.66677 -1.3007,1.44864 -1.66943,2.33662 -0.36896,0.88823 -0.61159,1.80879 -0.73566,2.77135 -0.12434,0.96281 -0.1699,1.74468 -0.16978,2.33662 -1.2e-4,0.29842 -1.2e-4,1.84404 0,4.65514 -1.2e-4,2.66671 -1.2e-4,5.70333 0,9.11103 -1.2e-4,3.25877 -1.2e-4,6.29991 0,9.11103 -1.2e-4,2.66668 -1.2e-4,4.07136 0,4.22041 0.24828,0.74131 0.17442,1.71409 -0.19806,2.89814 -0.37274,1.18424 0.79106,2.57532 3.50859,4.2023 2.46134,1.63168 4.18803,3.48864 5.17802,5.56081 0.98971,2.07233 1.7459,3.70202 2.23533,4.89061 l 0,56.87599 c -1.5e-4,0.74124 0.11929,1.46863 0.36782,2.20983 0.24827,0.74124 1.21878,1.3322 2.94271,1.77511 1.48275,0.29379 2.72043,0.33015 3.70666,0.10868 0.98595,-0.22144 1.86531,-0.46696 2.60316,-0.76076 0.49667,2e-5 0.97815,-0.2932 1.47135,-0.88756 0.49289,-0.59431 0.86248,-1.20113 1.1035,-1.79322 l -2.20701,-110.401 -14.79838,-0.21737 z m 109.10615,55.08277 c 0.60189,0.39498 1.12824,0.69469 1.66942,0.96001 -0.0126,-0.0168 -0.0157,-0.0376 -0.0283,-0.0543 -0.45449,-0.28219 -0.88496,-0.58058 -1.32988,-0.86944 -0.10264,-0.0154 -0.20832,-0.0214 -0.31124,-0.0362 z m -196.87774,57.14769 c -5.6e-4,0.0122 5.7e-4,0.024 0,0.0362 1.34718,0.69864 3.39212,1.44739 2.48998,1.05058 -1.21739,-0.53547 -1.85297,-0.80586 -2.48998,-1.08681 z m 191.67143,6.01364 c 0.0951,0.10726 0.0792,0.079 0.16977,0.18113 0.007,4.4e-4 0.0193,-0.002 0.0283,0 -0.0671,-0.0579 -0.0738,-0.0747 -0.19807,-0.18113 z m -134.85475,0.18113 c 0.36088,0.14891 0.70434,0.28781 1.04693,0.3985 l 0.0566,0 c 0.0689,-0.0952 0.12536,-0.18032 0.16977,-0.27171 -0.42419,-0.0441 -0.85082,-0.0796 -1.27328,-0.12679 z m 138.44824,3.98494 c 0.11907,0.24795 0.24341,0.50047 0.36783,0.74265 0.0744,-0.0632 0.12533,-0.13552 0.19807,-0.19924 -0.15388,-0.14115 -0.18186,-0.17463 -0.36783,-0.34415 -0.0728,-0.0664 -0.12724,-0.13312 -0.19807,-0.19926 z"
       id="text2985"
       inkscape:connector-curvature="0" />
    <flowRoot
       xml:space="preserve"
       id="flowRoot2993"
       style="fill:black;stroke:none;stroke-opacity:1;stroke-width:1px;stroke-linejoin:miter;stroke-linecap:butt;fill-opacity:1;font-family:Sans;font-style:normal;font-weight:normal;font-size:40px;line-height:125%;letter-spacing:0px;word-spacing:0px"><flowRegion
         id="flowRegion2995"><rect
           id="rect2997"
           width="26.541176"
           height="73.253647"
           x="98.733177"
           y="387.77115" /></flowRegion><flowPara
         id="flowPara2999"></flowPara></flowRoot>  </g>
  <g
     inkscape:groupmode="layer"
     id="layer2"
     inkscape:label="restaurant">
    <g
       style="font-size:40px;font-style:normal;font-weight:normal;line-height:125%;letter-spacing:0px;word-spacing:0px;fill:#e94f1d;fill-opacity:1;stroke:none;font-family:Sans"
       id="text3351"
       transform="matrix(1,0,0,0.82544758,-17.075114,65.780037)">
      <path
         d="m 230.509,518.64052 0,-169.78893 23.75134,0 c 9.59099,1.8e-4 17.20269,4.25401 22.83521,12.76152 5.63236,8.50779 8.44862,20.01344 8.44868,34.51686 -6e-5,9.88523 -1.37992,18.43338 -4.13953,25.64454 -2.75975,7.21138 -6.71828,12.59957 -11.87566,16.16465 3.03106,3.56518 5.99434,8.42665 8.88979,14.58457 2.89533,6.15799 6.96701,16.89385 12.21495,32.20763 3.3025,9.64204 5.94908,16.89378 7.93975,21.75532 l 5.0217,12.15384 -16.15091,0 -4.13949,-11.18153 c -0.13578,-0.40511 -0.40725,-1.09386 -0.81435,-2.06615 l -2.64658,-6.68462 -4.20735,-12.3969 -4.5467,-13.24763 c -2.80496,-6.9682 -5.37239,-12.51842 -7.70223,-16.65074 -2.32992,-4.1323 -4.43361,-7.10993 -6.31105,-8.93307 -1.87754,-1.82301 -5.03305,-2.73453 -9.46659,-2.73461 l -3.52879,0 0,73.89525 z m 17.64386,-149.12742 -4.07167,0 0,53.59832 5.15746,0 c 6.87654,1.2e-4 11.59287,-1.05319 14.14897,-3.15996 2.55607,-2.10652 4.54664,-5.28681 5.97176,-9.54073 1.42505,-4.25377 2.13756,-9.095 2.13764,-14.52387 -8e-5,-5.34752 -0.79176,-10.18876 -2.37513,-14.52381 -1.58348,-4.33471 -3.81155,-7.39342 -6.68431,-9.17611 -2.87282,-1.78238 -7.6344,-2.67367 -14.28472,-2.67384 z"
         style="font-variant:normal;font-stretch:normal;fill:#e94f1d;font-family:Gill Sans MT;-inkscape-font-specification:Gill Sans MT"
         id="path4124"
         inkscape:connector-curvature="0" />
      <path
         d="m 286.45926,351.80671 15.46875,0 0,3.47656 -11.5625,0 0,8.32032 11.17188,0 0,3.49609 -11.17188,0 0,8.47656 11.9336,0 0,3.47656 -15.83985,0 z"
         style="font-variant:normal;font-stretch:normal;fill:#e94f1d;font-family:Gill Sans MT;-inkscape-font-specification:Gill Sans MT"
         id="path4126"
         inkscape:connector-curvature="0" />
      <path
         d="m 312.60726,366.90777 -2.96875,-1.79687 c -1.86198,-1.1328 -3.18685,-2.24933 -3.97461,-3.34961 -0.78776,-1.10024 -1.18164,-2.36652 -1.18164,-3.79883 0,-2.14841 0.74544,-3.8932 2.23633,-5.23437 1.49088,-1.34112 3.42773,-2.01169 5.81055,-2.01172 2.27863,3e-5 4.36847,0.63805 6.26953,1.91406 l 0,4.43359 c -1.96616,-1.88799 -4.08204,-2.832 -6.34766,-2.83203 -1.27605,3e-5 -2.32422,0.29625 -3.14453,0.88867 -0.82032,0.59248 -1.23047,1.35094 -1.23047,2.2754 0,0.82033 0.29948,1.58856 0.89844,2.30468 0.59895,0.71617 1.569,1.46486 2.91016,2.2461 l 2.98828,1.75781 c 3.33332,1.97918 4.99998,4.50522 5,7.57812 -2e-5,2.18751 -0.73244,3.96485 -2.19727,5.33204 -1.46485,1.36718 -3.36915,2.05078 -5.71289,2.05078 -2.69532,0 -5.14974,-0.82683 -7.36328,-2.48047 l 0,-4.96094 c 2.10937,2.66928 4.55078,4.00391 7.32422,4.00391 1.22395,0 2.24283,-0.3418 3.05664,-1.02539 0.81379,-0.68359 1.22069,-1.53971 1.2207,-2.56836 -10e-6,-1.66666 -1.19792,-3.24218 -3.59375,-4.72657 z"
         style="font-variant:normal;font-stretch:normal;fill:#e94f1d;font-family:Gill Sans MT;-inkscape-font-specification:Gill Sans MT"
         id="path4128"
         inkscape:connector-curvature="0" />
      <path
         d="m 321.27476,352.50644 22.79297,0 0,3.47656 -9.51172,0 0,23.84766 -3.92578,0 0,-23.84766 -9.35547,0 z"
         style="font-variant:normal;font-stretch:normal;fill:#e94f1d;font-family:Gill Sans MT;-inkscape-font-specification:Gill Sans MT"
         id="path4130"
         inkscape:connector-curvature="0" />
      <path
         d="m 352.7916,352.38925 2.75391,0 12.20703,27.44141 -4.00391,0 -3.63281,-8.08594 -11.60156,0 -3.4375,8.08594 -4.00391,0 z m 5.72266,15.87891 -4.39454,-9.88282 -4.08203,9.88282 z"
         style="font-variant:normal;font-stretch:normal;fill:#e94f1d;font-family:Gill Sans MT;-inkscape-font-specification:Gill Sans MT"
         id="path4132"
         inkscape:connector-curvature="0" />
      <path
         d="m 388.56414,352.5455 3.92578,0 0,15.48828 c -3e-5,2.09637 -0.15302,3.6784 -0.45899,4.7461 -0.30601,1.06771 -0.68362,1.95638 -1.13281,2.66601 -0.44924,0.70964 -0.99937,1.34441 -1.65039,1.9043 -2.16148,1.86198 -4.987,2.79297 -8.47656,2.79297 -3.5547,0 -6.40626,-0.92448 -8.55469,-2.77344 -0.65105,-0.57291 -1.20118,-1.21419 -1.65039,-1.92383 -0.44922,-0.70963 -0.82032,-1.57877 -1.11328,-2.60742 -0.29297,-1.02864 -0.43946,-2.64322 -0.43945,-4.84375 l 0,-15.44922 3.92578,0 0,15.48828 c -1e-5,2.56512 0.29296,4.34897 0.8789,5.35156 0.58593,1.00261 1.47786,1.80665 2.67578,2.41211 1.19791,0.60548 2.61067,0.90821 4.23829,0.90821 2.31769,0 4.20571,-0.60547 5.66406,-1.81641 0.76821,-0.65104 1.32159,-1.41926 1.66015,-2.30469 0.33852,-0.88541 0.50779,-2.40233 0.50782,-4.55078 z"
         style="font-variant:normal;font-stretch:normal;fill:#e94f1d;font-family:Gill Sans MT;-inkscape-font-specification:Gill Sans MT"
         id="path4134"
         inkscape:connector-curvature="0" />
      <path
         d="m 396.83666,379.83066 0,-27.28516 6.83594,0 c 2.76041,3e-5 4.95116,0.68362 6.57227,2.05078 1.62107,1.36721 2.43162,3.21617 2.43164,5.54688 -2e-5,1.58856 -0.39716,2.96225 -1.19141,4.12109 -0.79429,1.15887 -1.93361,2.02475 -3.41797,2.59766 0.87238,0.57293 1.72525,1.35417 2.5586,2.34375 0.83331,0.98959 2.00519,2.71485 3.51562,5.17578 0.9505,1.54948 1.71222,2.71484 2.28516,3.49609 l 1.44531,1.95313 -4.64844,0 -1.1914,-1.79688 c -0.0391,-0.0651 -0.11721,-0.17578 -0.23438,-0.33203 l -0.76172,-1.07422 -1.21093,-1.99219 -1.3086,-2.1289 c -0.8073,-1.11979 -1.54624,-2.01171 -2.2168,-2.67578 -0.67058,-0.66406 -1.27605,-1.14257 -1.8164,-1.43555 -0.54038,-0.29296 -1.44858,-0.43944 -2.72461,-0.43945 l -1.01563,0 0,11.875 z m 5.07813,-23.96485 -1.17188,0 0,8.61328 1.48438,0 c 1.97916,2e-5 3.33658,-0.16925 4.07226,-0.50781 0.73567,-0.33852 1.30858,-0.84959 1.71875,-1.5332 0.41015,-0.68358 0.61522,-1.46157 0.61524,-2.33399 -2e-5,-0.85935 -0.22788,-1.63734 -0.68359,-2.33398 -0.45575,-0.69659 -1.09702,-1.18813 -1.92383,-1.47461 -0.82684,-0.28643 -2.19728,-0.42966 -4.11133,-0.42969 z"
         style="font-variant:normal;font-stretch:normal;fill:#e94f1d;font-family:Gill Sans MT;-inkscape-font-specification:Gill Sans MT"
         id="path4136"
         inkscape:connector-curvature="0" />
      <path
         d="m 432.01034,351.65048 2.75391,0 12.20703,27.44141 -4.00391,0 -3.63281,-8.08594 -11.60156,0 -3.4375,8.08594 -4.00391,0 z m 5.72266,15.87891 -4.39454,-9.88282 -4.08203,9.88282 z"
         style="font-variant:normal;font-stretch:normal;fill:#e94f1d;font-family:Gill Sans MT;-inkscape-font-specification:Gill Sans MT"
         id="path4138"
         inkscape:connector-curvature="0" />
      <path
         d="m 464.66553,351.06794 2.81553,0 0,27.28516 -2.5488,0 -13.84051,-20.9961 0,20.9961 -2.78588,0 0,-27.28516 2.4006,0 13.95906,21.17188 z"
         style="font-variant:normal;font-stretch:normal;fill:#e94f1d;font-family:Gill Sans MT;-inkscape-font-specification:Gill Sans MT"
         id="path4140"
         inkscape:connector-curvature="0" />
      <path
         d="m 471.75733,351.32753 66.0001,0 0,21.70635 -27.54246,0 c 0,117.59704 0,289.13205 0,148.89582 l -11.36762,0 0,-148.89582 -27.09002,0 z"
         style="font-variant:normal;font-stretch:normal;fill:#e94f1d;font-family:Gill Sans MT;-inkscape-font-specification:Gill Sans MT"
         id="path4142"
         inkscape:connector-curvature="0"
         sodipodi:nodetypes="ccccccccc" />
    </g>
  </g>
  <g
     inkscape:groupmode="layer"
     id="layer3"
     inkscape:label="steluta">
    <text
       xml:space="preserve"
       style="font-size:71.82033539px;font-style:normal;font-weight:normal;line-height:125%;letter-spacing:0px;word-spacing:0px;fill:#e94f1d;fill-opacity:1;stroke:none;font-family:Sans"
       x="194.80641"
       y="583.79932"
       id="text4292"
       sodipodi:linespacing="125%"
       transform="scale(1.0673637,0.9368878)"><tspan
         sodipodi:role="line"
         id="tspan4294"
         x="194.80641"
         y="583.79932"
         style="font-style:normal;font-variant:normal;font-weight:normal;font-stretch:normal;fill:#e94f1d;fill-opacity:1;font-family:Gill Sans MT;-inkscape-font-specification:Gill Sans MT">STELUŢA</tspan></text>
  </g>
</svg>
